<svg xmlns="http://www.w3.org/2000/svg" width="0" height="0" style="position:absolute;overflow:hidden" aria-hidden="true"><defs>
<linearGradient id="g-tomato" x1="0" y1="0" x2=".3" y2="1"><stop stop-color="#ff9872"/><stop offset=".45" stop-color="#ee644a"/><stop offset="1" stop-color="#c94538"/></linearGradient>
<linearGradient id="g-pepper" x1="0" y1="0" x2=".2" y2="1"><stop stop-color="#ff8a65"/><stop offset="1" stop-color="#c94736"/></linearGradient>
<linearGradient id="g-cheese" x1="0" y1="0" x2=".3" y2="1"><stop stop-color="#fff1a4"/><stop offset="1" stop-color="#ffc44e"/></linearGradient>
<linearGradient id="g-green" x1="0" y1="0" x2="1" y2="1"><stop stop-color="#96cc7b"/><stop offset=".6" stop-color="#62a765"/><stop offset="1" stop-color="#3a855d"/></linearGradient>
<linearGradient id="g-oven" x1="0" y1="0" x2=".6" y2="1"><stop stop-color="#f79f71"/><stop offset="1" stop-color="#bd6049"/></linearGradient>
<linearGradient id="g-soda" x1="0" y1="0" x2=".9" y2="1"><stop stop-color="#bce8e4"/><stop offset="1" stop-color="#5dacc5"/></linearGradient>
<linearGradient id="g-mush" x1="0" y1="0" x2=".3" y2="1"><stop stop-color="#e3ab8b"/><stop offset="1" stop-color="#aa725d"/></linearGradient>
<linearGradient id="g-dough" x1="0" y1="0" x2=".3" y2="1"><stop stop-color="#fff6d2"/><stop offset="1" stop-color="#e8c282"/></linearGradient>
<linearGradient id="g-olive" x1="0" y1="0" x2=".6" y2="1"><stop stop-color="#a3bd7c"/><stop offset="1" stop-color="#547553"/></linearGradient>
<linearGradient id="g-metal" x1="0" y1="0" x2=".8" y2="1"><stop stop-color="#d9e9e3"/><stop offset=".5" stop-color="#9cbfbc"/><stop offset="1" stop-color="#759690"/></linearGradient>
<linearGradient id="g-coin" x1="0" y1="0" x2=".5" y2="1"><stop stop-color="#fff097"/><stop offset=".5" stop-color="#ffd263"/><stop offset="1" stop-color="#e8ae43"/></linearGradient>
<linearGradient id="g-wood" x1="0" y1="0" x2=".5" y2="1"><stop stop-color="#dba269"/><stop offset="1" stop-color="#ac7549"/></linearGradient>

<symbol id="i-play" viewBox="0 0 24 24"><g stroke-linecap="round" stroke-linejoin="round"><path d="M8 4 21 12 8 20Z" fill="currentColor"/></g></symbol><symbol id="i-pause" viewBox="0 0 24 24"><g stroke-linecap="round" stroke-linejoin="round"><path d="M6 4h4v16H6zm8 0h4v16h-4z" fill="currentColor"/></g></symbol><symbol id="i-gear" viewBox="0 0 24 24"><g stroke-linecap="round" stroke-linejoin="round"><path d="m9 2-1 4-4 1-2 4 3 3-1 4 4 3 4-2 4 2 4-3-1-4 3-3-2-4-4-1-1-4Z" fill="none" stroke="currentColor" stroke-width="2"/><circle cx="12" cy="12" r="3" fill="none" stroke="currentColor" stroke-width="2"/></g></symbol><symbol id="i-close" viewBox="0 0 24 24"><g stroke-linecap="round" stroke-linejoin="round"><path d="m6 6 12 12M18 6 6 18" fill="none" stroke="currentColor" stroke-width="3" stroke-linecap="round"/></g></symbol>
<symbol id="coin" viewBox="0 0 64 64"><g stroke-linecap="round" stroke-linejoin="round"><circle cx="32" cy="35" r="25" fill="#c88b31"/><circle cx="32" cy="30" r="25" fill="url(#g-coin)" stroke="#e4a134" stroke-width="3"/><circle cx="32" cy="30" r="18" fill="none" stroke="#ffeaa2" stroke-width="3"/><path d="M36 19h-9v23m0-22c19-4 18 14 0 12" stroke="#ae752b" fill="none" stroke-width="5" stroke-linecap="round"/></g></symbol>
<symbol id="heart" viewBox="0 0 64 64"><g stroke-linecap="round" stroke-linejoin="round"><path d="M32 55C-8 29 12 2 32 19 52 2 72 29 32 55" fill="#ea5d50" stroke="#b63932" stroke-width="3"/><path d="M15 24q4-7 10-2" fill="none" stroke="#ffbda4" stroke-width="5" stroke-linecap="round"/></g></symbol>
<symbol id="flag" viewBox="0 0 64 64"><g stroke-linecap="round" stroke-linejoin="round"><path d="M16 57V8" stroke="#776149" stroke-width="5" stroke-linecap="round"/><path d="M18 9h31l-8 12 8 12H18Z" fill="#4b9b79"/><path d="M20 13h20l-5 7H20Z" fill="#8ac998"/><ellipse cx="17" cy="57" rx="12" ry="4" fill="#d3c3a3"/></g></symbol>
<symbol id="pizza" viewBox="0 0 64 64"><g stroke-linecap="round" stroke-linejoin="round"><path d="M9 13q23-14 46 0L34 58q-2 4-4 0Z" fill="#e3a245" stroke="#a85b31" stroke-width="3" stroke-linejoin="round"/><path d="M14 17q18-9 36 0L32 53Z" fill="url(#g-cheese)"/><path d="M11 13q21-12 42 0" stroke="#f5bc6b" stroke-width="8" stroke-linecap="round"/><circle cx="25" cy="23" r="5" fill="#dd5038"/><circle cx="39" cy="28" r="5" fill="#dd5038"/><circle cx="31" cy="40" r="4" fill="#dd5038"/><path d="m19 29 4 4m16-14 3 2" stroke="#569159" stroke-width="3" stroke-linecap="round"/><path d="m28 32 3-1" stroke="#fff0ae" stroke-width="3" stroke-linecap="round"/></g></symbol>
<symbol id="t-pepper" viewBox="0 0 64 64"><g stroke-linecap="round" stroke-linejoin="round"><ellipse cx="32" cy="53" rx="25" ry="7" fill="#7b7241" opacity=".3"/><path d="M12 37h40v14q-20 12-40 0Z" fill="#aa6940" stroke="#734d36" stroke-width="2"/><ellipse cx="32" cy="37" rx="20" ry="10" fill="#f3b25e" stroke="#9a5f36" stroke-width="2"/><path d="M25 30V15h14v15" fill="#cb4036" stroke="#7b3630" stroke-width="3"/><ellipse cx="32" cy="14" rx="9" ry="6" fill="#eb6951" stroke="#7b3630" stroke-width="3"/><ellipse cx="32" cy="14" rx="4" ry="2.5" fill="#573a2d"/><circle cx="32" cy="32" r="11" fill="url(#g-pepper)" stroke="#923d2f" stroke-width="2"/><circle cx="27" cy="29" r="2" fill="#ffb774"/><circle cx="36" cy="33" r="2" fill="#ffb774"/><circle cx="28" cy="36" r="1.5" fill="#bd372d"/><path d="M18 47h7m14 0h7" stroke="#eab36d" stroke-width="3" stroke-linecap="round"/><path d="m15 40 7 3m21-1 5-2" stroke="#ffd699" stroke-width="2" opacity=".8"/><circle cx="48" cy="49" r="1.2" fill="#704936"/><circle cx="16" cy="49" r="1.2" fill="#704936"/><path d="M32 8V5" stroke="#ffe2ba" stroke-width="2"/></g></symbol>
<symbol id="t-cheese" viewBox="0 0 64 64"><g stroke-linecap="round" stroke-linejoin="round"><ellipse cx="32" cy="54" rx="25" ry="6" fill="#7b7241" opacity=".3"/><path d="M12 38h40v14H12Z" fill="#b27f36" stroke="#77532c" stroke-width="2"/><ellipse cx="32" cy="37" rx="22" ry="8" fill="#f6c955" stroke="#a77b32" stroke-width="2"/><path d="M15 34 25 14l27 9v15l-22 9-15-7Z" fill="url(#g-cheese)" stroke="#b98735" stroke-width="2"/><path d="m15 34 15 5 22-16M30 39v8" fill="none" stroke="#c8953c" stroke-width="2"/><circle cx="24" cy="30" r="3" fill="#dbae47"/><circle cx="39" cy="35" r="4" fill="#e6b544"/><circle cx="46" cy="28" r="2" fill="#e6b544"/><path d="M23 17v-6m5 8V9" stroke="#fff1ac" stroke-width="3" stroke-linecap="round"/><path d="M31 40v8q0 4 3 1v-7m9-7v8q0 4 3 0v-9" fill="#ffe086" stroke="#c9953d" stroke-width="1"/><path d="m25 18 11 4" stroke="#fff7b7" stroke-width="2.5"/><circle cx="20" cy="49" r="1.3" fill="#efc45d"/></g></symbol>
<symbol id="t-basil" viewBox="0 0 64 64"><g stroke-linecap="round" stroke-linejoin="round"><ellipse cx="32" cy="54" rx="24" ry="6" fill="#7b7241" opacity=".3"/><path d="m16 32 5 22h23l5-22Z" fill="url(#g-wood)" stroke="#84503a" stroke-width="2"/><rect x="13" y="29" width="39" height="10" rx="4" fill="#e19e67" stroke="#84503a" stroke-width="2"/><path d="M32 32V14" stroke="#326b49" stroke-width="4"/><path d="M31 25C7 29 9 8 14 6c17 0 22 10 17 19M33 24C56 28 58 9 54 5 38 6 30 15 33 24" fill="url(#g-green)" stroke="#296b4b" stroke-width="2"/><path d="m16 10 15 14M51 10 34 24" stroke="#92cd84" stroke-width="2"/><path d="M24 45h16" stroke="#f4bf84" stroke-width="3" stroke-linecap="round"/><path d="M20 41h6m-5 9h7" stroke="#f9c797" stroke-width="1.5"/><g class="leafglint"><path d="m15 10 3 1m31 0 3-1" stroke="#d5efa9" stroke-width="2"/></g><circle cx="42" cy="47" r="2" fill="#9a663f"/></g></symbol>
<symbol id="t-oven" viewBox="0 0 64 64"><g stroke-linecap="round" stroke-linejoin="round"><ellipse cx="32" cy="55" rx="26" ry="6" fill="#7b7241" opacity=".3"/><path d="M8 51V30a24 24 0 0 1 48 0v21Z" fill="url(#g-oven)" stroke="#814c37" stroke-width="3"/><path d="M17 50V34a15 15 0 0 1 30 0v16Z" fill="#4b3b32" stroke="#f3b373" stroke-width="5"/><path d="M23 46c-9-9 6-10 5-20 8 5 1 7 9 10 6-8 12 8 2 12Z" fill="#ff9a38"/><path d="M30 46c-5-8 6-6 4-13 7 7 8 13-4 13" fill="#ffe172"/><path d="M13 24h9m18 0h9M27 13h10" stroke="#ac523c" stroke-width="3"/><rect x="5" y="50" width="54" height="7" rx="3" fill="#9d583b"/><g class="steam" stroke="#fff2bb" stroke-width="1.5" opacity=".55" fill="none"><path d="M23 7q-5-4 0-8m17 8q5-5 0-9"/></g><path d="M11 32h5m-4 10h5m31-10h5m-4 10h5" stroke="#a45e44" stroke-width="2"/><path d="m25 53 14 0" stroke="#e1a267" stroke-width="1.5"/></g></symbol>
<symbol id="t-soda" viewBox="0 0 64 64"><g stroke-linecap="round" stroke-linejoin="round"><ellipse cx="32" cy="54" rx="24" ry="6" fill="#7b7241" opacity=".3"/><path d="M16 15h32l-3 37H19Z" fill="url(#g-soda)" stroke="#42738b" stroke-width="2"/><path d="M21 23h22l-2 23H23Z" fill="#d5f4ed"/><path d="m32 29 5-10M37 19l4-14h9" stroke="#ed7355" stroke-width="4" fill="none" stroke-linecap="round"/><ellipse cx="32" cy="15" rx="18" ry="5" fill="#a6dfdf" stroke="#42738b" stroke-width="2"/><path d="m30 25-5 10h7l-2 10 10-14h-7l4-6" fill="#579ec0"/><path d="M16 51h32v5H16Z" fill="#5788a1"/><path d="M20 23 22 46" stroke="#ecfff6" stroke-width="2" opacity=".7"/><g class="tiny-bubble" fill="#c7ffff"><circle cx="27" cy="14" r="1.8"/><circle cx="33" cy="10" r="1.3"/><circle cx="39" cy="13" r="1.3"/></g><path d="m18 49 24 0" stroke="#9ed9dc" stroke-width="2"/></g></symbol>
<symbol id="e-tomato" viewBox="0 0 48 48"><g stroke-linecap="round" stroke-linejoin="round"><ellipse cx="24" cy="43" rx="18" ry="4" fill="#695338" opacity=".23"/><path d="m12 35-3 7m26-7 4 7" stroke="#6c3f2c" stroke-width="4" stroke-linecap="round"/><circle cx="24" cy="24" r="18" fill="url(#g-tomato)" stroke="#9f3e31" stroke-width="2"/><path d="m23 11-8-3 6-2 2-5 3 6 9-2-4 7" fill="#4b8854"/><path d="m13 21 7 2m8 0 7-2" stroke="#63372c" stroke-width="2"/><circle cx="18" cy="25" r="2" fill="#462e2a"/><circle cx="30" cy="25" r="2" fill="#462e2a"/><path d="m20 34 4-3 4 3" fill="none" stroke="#69392d" stroke-width="2"/><path d="m12 15 4-3" stroke="#ffa37f" stroke-width="4" stroke-linecap="round"/><path d="M9 26q-1 5 3 9" fill="none" stroke="#c24635" stroke-width="2" opacity=".5"/><ellipse cx="34" cy="31" rx="3" ry="1.5" fill="#ff9c7e" opacity=".6"/><circle cx="13" cy="19" r="1.5" fill="#ffc39c"/></g></symbol>
<symbol id="e-olive" viewBox="0 0 48 48"><g stroke-linecap="round" stroke-linejoin="round"><ellipse cx="24" cy="43" rx="16" ry="3" fill="#695338" opacity=".23"/><path d="m16 35-7 6m24-6 7 6" stroke="#483e32" stroke-width="4" stroke-linecap="round"/><ellipse cx="24" cy="24" rx="14" ry="18" fill="url(#g-olive)" stroke="#394e39" stroke-width="2"/><ellipse cx="24" cy="14" rx="6" ry="5" fill="#d98655"/><path d="m17 25 3 1m8 0 3-1" stroke="#f5e4b6" stroke-width="3" stroke-linecap="round"/><path d="M20 34h8" stroke="#304031" stroke-width="2"/><path d="M13 17v5" stroke="#a1b377" stroke-width="3" stroke-linecap="round"/><path d="M16 12q3-4 6-4" fill="none" stroke="#c4d597" stroke-width="2.5"/><path d="M35 28q0 7-5 10" fill="none" stroke="#425f41" stroke-width="2"/><ellipse cx="16" cy="30" rx="2.5" ry="1.3" fill="#b6ca8f"/></g></symbol>
<symbol id="e-mush" viewBox="0 0 48 48"><g stroke-linecap="round" stroke-linejoin="round"><ellipse cx="24" cy="43" rx="20" ry="4" fill="#695338" opacity=".23"/><path d="M15 23h18l3 17q-12 6-24 0Z" fill="#fff0c5" stroke="#99785c" stroke-width="2"/><path d="M3 24C3-2 45-2 45 24q-21 10-42 0" fill="url(#g-mush)" stroke="#785849" stroke-width="2"/><circle cx="14" cy="15" r="4" fill="#edd3ac"/><circle cx="31" cy="11" r="4" fill="#edd3ac"/><circle cx="37" cy="22" r="3" fill="#edd3ac"/><path d="m17 33 3 1m8 0 3-1" stroke="#5c4132" stroke-width="3"/><path d="M20 40h8" stroke="#5c4132" stroke-width="2"/><path d="M7 21q-1-6 4-10" stroke="#edc2a0" stroke-width="2" fill="none"/><path d="M11 28q12 6 26 0" stroke="#795848" stroke-width="1.5" fill="none" opacity=".4"/><circle cx="24" cy="18" r="1.4" fill="#f5d3a9"/></g></symbol>
<symbol id="e-boss" viewBox="0 0 64 64"><g stroke-linecap="round" stroke-linejoin="round"><ellipse cx="32" cy="58" rx="27" ry="4" fill="#695338" opacity=".23"/><path d="m15 48-6 9m39-9 7 9" stroke="#675346" stroke-width="5" stroke-linecap="round"/><path d="M7 30q25-15 50 0v19q-25 15-50 0Z" fill="url(#g-cheese)" stroke="#986234" stroke-width="3"/><path d="M5 25q27-20 54 0v11H5Z" fill="#c95038" stroke="#873b2d" stroke-width="3"/><path d="M8 25q24-12 48 0" stroke="#ffdb6c" stroke-width="8"/><path d="m16 10 6 8 10-13 10 13 6-8v13H16Z" fill="#ffe08a" stroke="#a97c36" stroke-width="2"/><path d="m17 38 9 3m12 0 9-3" stroke="#5c3427" stroke-width="3"/><circle cx="24" cy="43" r="2.5" fill="#463124"/><circle cx="40" cy="43" r="2.5" fill="#463124"/><path d="M27 52h10" stroke="#7b412d" stroke-width="3"/><path d="m18 29 2 9q2 4 4-1l1-7m18-1v9q2 4 4-1l2-8" fill="#ffd76a" stroke="#ba8540" stroke-width="1"/><path d="m20 13 3 6m9-10v8m11-4-3 6" stroke="#fff2b0" stroke-width="2"/><circle cx="32" cy="19" r="2.5" fill="#e98153" stroke="#b56535" stroke-width="1"/><path d="M12 46q2 3 6 4m29 0 4-3" stroke="#e9ba68" stroke-width="2" fill="none"/></g></symbol>
<symbol id="bomb" viewBox="0 0 64 64"><g stroke-linecap="round" stroke-linejoin="round"><path d="m33 17 6-7 12 2" fill="none" stroke="#8a6543" stroke-width="4"/><path d="m49 5 3 6 7-1-5 5 3 6-7-3-4 5 1-7-7-2 7-3" fill="#ffb84e"/><circle cx="28" cy="38" r="21" fill="#d95a38" stroke="#99402f" stroke-width="3"/><path d="M16 30q4-6 10-7" stroke="#ffb17b" stroke-width="4" fill="none" stroke-linecap="round"/><path d="m27 28-6 12h9l-3 10 12-15h-9l4-7" fill="#ffe598"/></g></symbol>
<symbol id="blizzard" viewBox="0 0 64 64"><g stroke-linecap="round" stroke-linejoin="round"><path d="M32 8v48M11 20l42 24M11 44l42-24m-27-7 6 6 6-6m-12 38 6-6 6 6M12 27l9-2-1-9m24 32-1-9 9-2M12 37l9 2-1 9m24-32-1 9 9 2" stroke="#60acbd" stroke-width="4" stroke-linecap="round" fill="none"/><circle cx="32" cy="32" r="6" fill="#b9e9dd"/></g></symbol>
<symbol id="medal" viewBox="0 0 64 64"><g stroke-linecap="round" stroke-linejoin="round"><path d="m16 6 3 27 13 5 13-5 3-27H36l-4 17-4-17Z" fill="#dc6350"/><circle cx="32" cy="43" r="18" fill="#f6c351" stroke="#c9983d" stroke-width="3"/><path d="m32 30 4 8 9 1-7 6 2 9-8-5-8 5 2-9-7-6 9-1Z" fill="#fff2ac"/></g></symbol>
<symbol id="shop" viewBox="0 0 100 90"><g stroke-linecap="round" stroke-linejoin="round"><path d="M16 30h68v51H16Z" fill="#fff0cf" stroke="#86654a" stroke-width="3"/><path d="M10 12h80l8 24H2Z" fill="#ef6650" stroke="#ad4435" stroke-width="3"/><path d="m23 12-5 24m21-24-2 24m24-24 2 24m14-24 5 24" stroke="#fff1d4" stroke-width="10"/><path d="M2 36q8 16 16 0 9 16 18 0 14 16 28 0 9 16 18 0 8 16 16 0" fill="#f4a47c" stroke="#ad4435" stroke-width="2"/><rect x="26" y="50" width="22" height="24" rx="3" fill="#8fc4ae" stroke="#6c947d" stroke-width="2"/><path d="M32 51v22m-5-13h20" stroke="#d1ead1" stroke-width="2"/><rect x="59" y="51" width="17" height="30" rx="3" fill="#7c634b"/><circle cx="71" cy="67" r="2" fill="#eebd65"/><rect x="28" y="0" width="44" height="18" rx="5" fill="#fff0c8" stroke="#a3764c" stroke-width="2"/><text x="50" y="12" text-anchor="middle" fill="#bb5338" font-size="10" font-weight="900">PIZZA</text><path d="M18 78h36m28 0h2" stroke="#cfad83" stroke-width="3"/><path d="m61 55 8 0" stroke="#a98258" stroke-width="2"/><path d="m30 52 3 0" stroke="#f0ffe7" stroke-width="2"/><path d="M16 44h68" stroke="#edcea5" stroke-width="2"/></g></symbol>
<symbol id="t-sniper" viewBox="0 0 64 64"><g stroke-linecap="round" stroke-linejoin="round"><ellipse cx="32" cy="55" rx="24" ry="5" fill="#82744f" opacity=".25"/><path d="M14 36h36v17H14Z" fill="#a87b60" stroke="#765441" stroke-width="2"/><ellipse cx="32" cy="36" rx="21" ry="8" fill="#dfc89e" stroke="#8f7458" stroke-width="2"/><path d="M26 36V19h12v17" fill="#ead7aa" stroke="#a68965" stroke-width="2"/><path d="M10 22C10-2 54-2 54 22Z" fill="url(#g-mush)" stroke="#795846" stroke-width="2"/><circle cx="21" cy="14" r="4" fill="#ffedbf"/><circle cx="39" cy="10" r="4" fill="#ffedbf"/><path d="M29 18h25v10H29Z" fill="#6d5d4c" stroke="#41372e" stroke-width="2"/><ellipse cx="53" cy="23" rx="4" ry="5" fill="#433e35"/><circle cx="51" cy="23" r="2" fill="#91c3a1"/><path d="M22 47h20" stroke="#d7b488" stroke-width="3"/><path d="M14 17q1-5 5-6" fill="none" stroke="#ffd8ae" stroke-width="2.5"/><path d="M17 43h9m11 5h7" stroke="#ebcda2" stroke-width="2"/><path d="M44 18h4" stroke="#c3d9c4" stroke-width="1.5"/></g></symbol>
<symbol id="t-farm" viewBox="0 0 64 64"><g stroke-linecap="round" stroke-linejoin="round"><ellipse cx="32" cy="55" rx="25" ry="5" fill="#82744f" opacity=".25"/><path d="M11 33h42v22H11Z" fill="url(#g-wood)" stroke="#835c39" stroke-width="2"/><path d="m15 37 34 0m-34 9h34" stroke="#f4bc74" stroke-width="3"/><path d="M29 33V11" stroke="#367653" stroke-width="3"/><path d="M29 24Q8 25 13 8q19 0 16 16m2-3Q51 23 50 5q-19 2-19 16" fill="#72ac5b" stroke="#397c4d" stroke-width="2"/><circle cx="41" cy="32" r="13" fill="#ffce5d" stroke="#b88736" stroke-width="2"/><path d="M40 23v18m-3-16q10-2 10 4t-11 6" fill="none" stroke="#be8b3b" stroke-width="3"/><path d="M15 40v13m6-13v13M11 45h17" stroke="#ae7745" stroke-width="1"/><circle cx="18" cy="39" r="1.1" fill="#7b563e"/><circle cx="18" cy="50" r="1.1" fill="#7b563e"/><path d="M35 24q2-3 5-3" stroke="#fff4bd" stroke-width="2" fill="none"/></g></symbol>
<symbol id="e-pepper" viewBox="0 0 48 48"><g stroke-linecap="round" stroke-linejoin="round"><path d="M12 17q12-11 26 0c7 24-14 27-28 18 10 1 13-4 2-18Z" fill="url(#g-pepper)" stroke="#913e2f" stroke-width="2"/><path d="M26 12q-3-9 5-11" stroke="#548651" stroke-width="5" fill="none"/><path d="m22 23 5 2m6-3 3 1" stroke="#ffe5ac" stroke-width="3"/><path d="m22 32 9-1" stroke="#733c2c" stroke-width="2"/><path d="M15 20q3-4 6-3" stroke="#f69268" stroke-width="3" fill="none"/><path d="m17 14 6 0" stroke="#ffb888" stroke-width="2"/><path d="M34 36q-4 5-11 4" fill="none" stroke="#aa4332" stroke-width="2"/><path d="m11 36-3 5m18-1 2 3" stroke="#7d4c33" stroke-width="3"/></g></symbol>
<symbol id="e-healer" viewBox="0 0 48 48"><g stroke-linecap="round" stroke-linejoin="round"><path d="m14 35-5 7m24-7 6 7" stroke="#536d44" stroke-width="3"/><path d="M24 40C-2 23 5 0 24 9 44-1 56 24 24 40" fill="url(#g-green)" stroke="#3e8156" stroke-width="2"/><path d="M24 16v16m-8-8h16" stroke="#fff4c6" stroke-width="5" stroke-linecap="round"/><path d="M12 18q-1-6 5-6" fill="none" stroke="#cae9a1" stroke-width="2"/><path d="M36 25q0 6-5 9" fill="none" stroke="#4d9760" stroke-width="2"/><circle cx="32" cy="15" r="1.5" fill="#c8e4a7"/></g></symbol>
<symbol id="e-dough" viewBox="0 0 48 48"><g stroke-linecap="round" stroke-linejoin="round"><path d="m13 36-4 6m25-6 5 6" stroke="#a3835b" stroke-width="3"/><path d="M5 27C-2 6 19 3 23 10 43-4 55 19 43 36 29 47 5 40 5 27Z" fill="url(#g-dough)" stroke="#bd986b" stroke-width="2"/><path d="m12 18 4-3m17 1 4 3" stroke="#fff6da" stroke-width="4" stroke-linecap="round"/><circle cx="17" cy="25" r="2" fill="#7b573a"/><circle cx="31" cy="25" r="2" fill="#7b573a"/><path d="M21 33h6" stroke="#aa7349" stroke-width="2"/><path d="M9 30q-1 7 5 8" stroke="#d9ad75" stroke-width="2" fill="none"/><circle cx="34" cy="33" r="2" fill="#e8c490"/><circle cx="12" cy="26" r="1.5" fill="#e8c490"/></g></symbol>
<symbol id="e-shield" viewBox="0 0 48 48"><g stroke-linecap="round" stroke-linejoin="round"><use href="#e-tomato"/><path d="M18 19h27v13q-4 9-14 12-12-5-13-12Z" fill="url(#g-metal)" stroke="#576e65" stroke-width="2"/><path d="m23 24 9 11 7-11" stroke="#dcebd2" stroke-width="3" fill="none"/><path d="M32 21v20M20 29h23" stroke="#83a29d" stroke-width="1"/><path d="M21 22h6" stroke="#f4fff2" stroke-width="2"/><circle cx="24" cy="32" r="1.5" fill="#5b8179"/><circle cx="39" cy="32" r="1.5" fill="#5b8179"/></g></symbol>
<symbol id="trap" viewBox="0 0 64 64"><g stroke-linecap="round" stroke-linejoin="round"><ellipse cx="32" cy="48" rx="25" ry="10" fill="#c89348" opacity=".35"/><path d="M33 7C24 24 12 32 15 43c5 18 31 15 34 0 2-12-10-22-16-36" fill="#e8b953" stroke="#a7803c" stroke-width="3"/><path d="M23 38q-4 10 6 13" stroke="#ffe597" fill="none" stroke-width="4" stroke-linecap="round"/></g></symbol>
<symbol id="chili" viewBox="0 0 64 64"><g stroke-linecap="round" stroke-linejoin="round"><path d="M17 19q21-11 33 8c8 25-21 36-44 25 22 0 28-13 11-33Z" fill="#e9653d" stroke="#b3432c" stroke-width="3"/><path d="M32 20q-4-13 10-15" stroke="#4c8b56" stroke-width="6" fill="none" stroke-linecap="round"/><path d="M27 26q11-2 16 8" stroke="#ffa96c" stroke-width="4" fill="none" stroke-linecap="round"/></g></symbol>
<symbol id="repair" viewBox="0 0 64 64"><g stroke-linecap="round" stroke-linejoin="round"><use href="#heart"/><path d="M32 23v22M21 34h22" stroke="#fff0cf" stroke-width="7" stroke-linecap="round"/></g></symbol>
<symbol id="i-build" viewBox="0 0 64 64"><g stroke-linecap="round" stroke-linejoin="round"><path d="M9 44h46v10H9Z" fill="currentColor"/><path d="M16 39V22h32v17M11 21 32 7l21 14" fill="none" stroke="currentColor" stroke-width="5" stroke-linecap="round"/><path d="M32 25v11m-6-5h12" stroke="currentColor" stroke-width="4"/></g></symbol>
<symbol id="i-intel" viewBox="0 0 64 64"><g stroke-linecap="round" stroke-linejoin="round"><path d="M11 8h42v49H11Z" fill="none" stroke="currentColor" stroke-width="5" stroke-linejoin="round"/><path d="M23 21h19M23 32h19M23 43h13" stroke="currentColor" stroke-width="4" stroke-linecap="round"/></g></symbol>
<symbol id="i-target" viewBox="0 0 64 64"><g stroke-linecap="round" stroke-linejoin="round"><circle cx="32" cy="32" r="20" stroke="currentColor" stroke-width="4" fill="none"/><path d="M32 3v16m0 26v16M3 32h16m26 0h16" stroke="currentColor" stroke-width="4"/><circle cx="32" cy="32" r="5" fill="currentColor"/></g></symbol>
<symbol id="a-pepper" viewBox="0 0 24 24"><circle cx="12" cy="12" r="9" fill="url(#g-pepper)" stroke="#8d4434" stroke-width="1.5"/><circle cx="8" cy="9" r="2" fill="#ffc979"/><circle cx="16" cy="13" r="1.8" fill="#ffa665"/><circle cx="9" cy="16" r="1.5" fill="#fdb670"/><path d="M7 6h4" stroke="#ffd8a2" stroke-width="1.5" stroke-linecap="round"/></symbol>
<symbol id="a-cheese" viewBox="0 0 24 24"><path d="m3 5 17 7-17 8Z" fill="url(#g-cheese)" stroke="#a88038" stroke-width="1.5" stroke-linejoin="round"/><circle cx="8" cy="11" r="1.8" fill="#daa34f"/><circle cx="12" cy="14" r="1.4" fill="#daa34f"/><path d="m6 7 8 3" stroke="#fff7cb" stroke-width="1.5"/></symbol>
<symbol id="a-basil" viewBox="0 0 24 24"><path d="M3 20C-2 2 14 1 22 3 24 15 17 21 3 20Z" fill="url(#g-green)" stroke="#47764e" stroke-width="1.5"/><path d="M3 20 19 6m-9 7-1-5m5 2h4" stroke="#c7e0a1" stroke-width="1.3" fill="none" stroke-linecap="round"/></symbol>
<symbol id="a-oven" viewBox="0 0 24 24"><path d="M17 4q10 9 0 16C4 26-3 15 5 4q2 7 6 2 5 6 6-2" fill="#f4923e" stroke="#c56535" stroke-width="1.5"/><path d="M14 9q6 8-1 12-7-1-6-6 6 3 7-6" fill="#ffe69a"/></symbol>
<symbol id="a-soda" viewBox="0 0 24 24"><circle cx="12" cy="12" r="8" fill="#b5eae7" stroke="#65bbc5" stroke-width="1.5"/><path d="m13 3-6 11h6l-2 8 9-12h-7l4-7" fill="#e5fff1" stroke="#78bcc2" stroke-width="1"/><circle cx="4" cy="5" r="2" fill="#d7fff5"/></symbol>
<symbol id="a-sniper" viewBox="0 0 24 24"><ellipse cx="12" cy="12" rx="10" ry="7" fill="url(#g-mush)" stroke="#876653" stroke-width="1.5"/><path d="M5 10h13" stroke="#fff1c8" stroke-width="2" stroke-linecap="round"/></symbol>
<symbol id="a-farm" viewBox="0 0 24 24"><path d="M3 17C1 5 15 3 21 7 21 19 11 23 3 17Z" fill="#e4b76c" stroke="#a6824d" stroke-width="1.5"/><path d="m6 17 11-8" stroke="#ffe6a7" stroke-width="1.5"/></symbol>
</defs></svg>